<svg fill="none" height="400" viewBox="0 0 400 400" width="400" xmlns="http://www.w3.org/2000/svg"><g stroke="#000" stroke-linecap="round" stroke-linejoin="round" stroke-width="16"><g stroke-opacity=".5"><path d="m142.109 51.0234c-84.0125 15.51-131.0373 173.0916-46.1817 229.6636"/><path d="m259.726 48.4385c115.032 6.4626 148.637 211.9695 0 237.8195"/><path d="m210.197 52.3162c-108.158-11.6326-164.1238 173.6128-79.268 230.1858"/><path d="m99.4365 236.52c-11.7277.165-23.3169.71-34.8974-2.443"/><path d="m89.8349 170.063c-11.7806 0-23.2702 0-34.8974 0"/><path d="m352.785 141.499c-6.981 0-13.789 0-20.68 0"/><path d="m350.199 213.878c-6.981 0-13.789 0-20.679 0"/><path d="m111.657 95.5793c-8.434-.4317-16.3848-.8386-24.7117-1.2648"/><path d="m72.943 268.43c-3.9062 4.443-32.943 79.675-32.943 79.675s173.123-10.809 248.987 5.363"/><path d="m236.975 48.4385c158.463 45.2374 113.226 262.3775-65.139 241.6975"/></g><path d="m216.427 99.0519c32.408-18.0978 59.126 20.5281 32.904 44.0081-29.856 26.734-54.977-16.999-32.904-39.073" stroke-opacity=".9"/><path d="m215.062 160.037c6.581 61.282 17.009 41.563 44.877 43.456" stroke-opacity=".9"/><path d="m215.062 160.037c-43.491 12.859-24.822 5.369-47.128 38.828" stroke-opacity=".9"/><path d="m215.065 160.037c-3.423 13.59-8.893 102.529-61.311 119.066" stroke-opacity=".9"/><path d="m202.348 224.796c22.049 18.987 20.354 40.717 28.991 59.226" stroke-opacity=".9"/><path d="m176.126 205.386c-8.279-6.076-15.347-9.039-18.806-1.426" stroke-opacity=".9"/><path d="m148.886 203.493c30.474 6.359 52.124 4.715 36.503 39.382-4.812 10.681-47.02-2.159-53.984-6.801-6.839-4.561 4.045-27.028 8.355-32.581" stroke-opacity=".9"/></g></svg>